HIERARCHY
ROOT Hips
{
    OFFSET 0.000000 0.000000 0.000000
    CHANNELS 6 Xposition Yposition Zposition Zrotation Xrotation Yrotation
    JOINT Spine
    {
        OFFSET -0.000000 7.236184 0.000000
        CHANNELS 3 Zrotation Xrotation Yrotation
        JOINT Spine1
        {
            OFFSET -0.000000 20.420147 0.000000
            CHANNELS 3 Zrotation Xrotation Yrotation
            JOINT Neck
            {
                OFFSET -0.000000 20.336288 1.848754
                CHANNELS 3 Zrotation Xrotation Yrotation
                JOINT Head
                {
                    OFFSET -0.000000 12.354461 -1.764923
                    CHANNELS 3 Zrotation Xrotation Yrotation
                    End Site
                    {
                        OFFSET -0.000000 22.061537 0.000000
                    }
                }
            }
            JOINT LeftShoulder
            {
                OFFSET 3.573296 18.396038 -0.314103
                CHANNELS 3 Zrotation Xrotation Yrotation
                JOINT LeftArm
                {
                    OFFSET 10.880760 0.000000 0.000000
                    CHANNELS 3 Zrotation Xrotation Yrotation
                    JOINT LeftForeArm
                    {
                        OFFSET 27.185530 0.000000 0.000000
                        CHANNELS 3 Zrotation Xrotation Yrotation
                        JOINT LeftHand
                        {
                            OFFSET 27.825975 0.000000 0.000000
                            CHANNELS 3 Zrotation Xrotation Yrotation
                            End Site
                            {
                                OFFSET 13.236923 0.000000 0.000000
                            }
                        }
                    }
                }
            }
            JOINT RightShoulder
            {
                OFFSET -3.474926 18.396038 -0.314103
                CHANNELS 3 Zrotation Xrotation Yrotation
                JOINT RightArm
                {
                    OFFSET -10.880760 0.000000 0.000000
                    CHANNELS 3 Zrotation Xrotation Yrotation
                    JOINT RightForeArm
                    {
                        OFFSET -27.185530 0.000000 0.000000
                        CHANNELS 3 Zrotation Xrotation Yrotation
                        JOINT RightHand
                        {
                            OFFSET -27.825975 0.000000 0.000000
                            CHANNELS 3 Zrotation Xrotation Yrotation
                            End Site
                            {
                                OFFSET -13.236923 0.000000 0.000000
                            }
                        }
                    }
                }
            }
        }
    }
    JOINT LeftUpLeg
    {
        OFFSET 8.824615 0.000000 0.000000
        CHANNELS 3 Zrotation Xrotation Yrotation
        JOINT LeftLeg
        {
            OFFSET -0.000000 -35.111282 0.000000
            CHANNELS 3 Zrotation Xrotation Yrotation
            JOINT LeftFoot
            {
                OFFSET -0.000000 -42.324711 0.000000
                CHANNELS 3 Zrotation Xrotation Yrotation
                JOINT LeftToeBase
                {
                    OFFSET -0.000000 -5.735999 13.236923
                    CHANNELS 3 Zrotation Xrotation Yrotation
                    End Site
                    {
                        OFFSET -0.000000 0.000000 3.529846
                    }
                }
            }
        }
    }
    JOINT RightUpLeg
    {
        OFFSET -8.824615 0.000000 0.000000
        CHANNELS 3 Zrotation Xrotation Yrotation
        JOINT RightLeg
        {
            OFFSET -0.000000 -35.111282 0.000000
            CHANNELS 3 Zrotation Xrotation Yrotation
            JOINT RightFoot
            {
                OFFSET -0.000000 -42.324711 0.000000
                CHANNELS 3 Zrotation Xrotation Yrotation
                JOINT RightToeBase
                {
                    OFFSET -0.000000 -5.735999 13.236923
                    CHANNELS 3 Zrotation Xrotation Yrotation
                    End Site
                    {
                        OFFSET -0.000000 0.000000 3.529846
                    }
                }
            }
        }
    }
}
MOTION
Frames:    4
Frame Time:    0.008333
25.118279    81.649956    110.442841    2.807897    -11.863696    -177.238937    -3.367897    -13.383549    0.103283    -0.034269    9.869212    0.501526    3.066864    12.822534    -2.191074    -1.282300    -3.960645    -2.605177    -0.318927    17.134993    0.154496    -55.914242    29.633858    -32.792900    3.356499    -5.934060    -13.309195    18.345467    -5.107161    2.718726    7.737368    18.757563    -6.913883    41.786041    40.570179    32.901344    -1.739801    -9.964325    16.767691    -18.394903    -9.110563    -3.762113    11.992997    -34.230869    2.393283    -9.246733    51.929153    25.859030    -7.661142    -4.190129    -18.336374    -1.132930    -6.014175    1.270253    -0.853511    -14.463231    -0.982951    5.267232    16.505470    1.129667    -2.250571    -10.395219    -15.922843    -0.632184    0.287024    0.683487    
25.300356    81.607643    110.412155    3.009534    -11.852544    -176.933655    -3.293177    -13.421239    0.130304    0.090767    9.882310    0.510112    3.088261    12.863914    -2.228678    -1.205869    -3.936134    -2.630092    -0.327879    17.196384    0.182515    -56.148518    29.688395    -32.584595    3.254846    -5.882004    -13.208168    18.357878    -5.059614    2.779718    7.785136    18.760437    -6.929005    41.879417    40.311249    32.817730    -1.729141    -9.968245    16.568251    -18.369822    -9.114553    -3.795530    11.665042    -34.168591    2.311507    -9.845174    51.918480    26.708168    -7.573390    -4.066798    -18.276926    -1.150046    -6.135579    1.289758    -0.555272    -14.511059    -1.091329    5.245431    16.679743    1.005377    -2.382677    -10.512324    -15.925263    -0.584759    0.347866    0.632162    
25.476101    81.563042    110.377106    3.217194    -11.839000    -176.625610    -3.220308    -13.461893    0.151891    0.222195    9.894470    0.512878    3.097716    12.906509    -2.262654    -1.116954    -3.914661    -2.648648    -0.337410    17.256067    0.208517    -56.378944    29.742300    -32.370998    3.150056    -5.842828    -13.095081    18.356806    -5.028062    2.826813    7.836462    18.764162    -6.949982    41.969002    40.057350    32.747086    -1.723994    -9.967278    16.378227    -18.331129    -9.114974    -3.817719    11.360900    -34.061905    2.241451    -10.360558    51.827160    27.502369    -7.451873    -3.938319    -18.200903    -1.162873    -6.266507    1.304488    -0.248792    -14.575212    -1.177850    5.216503    16.884878    0.834128    -2.497386    -10.649290    -15.903251    -0.541124    0.407272    0.584942    
25.644857    81.516602    110.338036    3.426752    -11.822326    -176.314178    -3.151238    -13.503785    0.167909    0.357030    9.905315    0.510158    3.093620    12.950689    -2.293681    -1.012743    -3.895158    -2.660977    -0.347773    17.313274    0.232675    -56.601959    29.796108    -32.154617    3.042121    -5.815300    -12.968973    18.335445    -5.011806    2.857626    7.891277    18.769556    -6.976173    42.055950    39.807686    32.689053    -1.723108    -9.961679    16.199066    -18.284681    -9.112013    -3.828790    11.078035    -33.915337    2.182316    -10.786991    51.664894    28.227625    -7.301095    -3.814104    -18.107483    -1.171677    -6.416921    1.314765    0.062065    -14.656569    -1.244472    5.178882    17.123341    0.611154    -2.592062    -10.804798    -15.851653    -0.502513    0.459128    0.543166    
